<?xml version="1.0" encoding="utf-8"?>
<!-- Generator: Adobe Illustrator 21.1.0, SVG Export Plug-In . SVG Version: 6.00 Build 0)  -->
<svg version="1.1" id="Слой_1" xmlns="http://www.w3.org/2000/svg" xmlns:xlink="http://www.w3.org/1999/xlink" x="0px" y="0px"
	 viewBox="0 0 60.8 51.2" style="enable-background:new 0 0 60.8 51.2;" xml:space="preserve">
<style type="text/css">
	.st0{fill:none;stroke:#000000;stroke-width:2;stroke-linecap:round;stroke-miterlimit:10;}
</style>
<path class="st0" d="M49.5,1l9.6,9.6c0.9,0.9,0.9,2.4,0,3.4L23.6,49.5c-0.9,0.9-2.4,0.9-3.4,0L1.7,31c-0.9-0.9-0.9-2.4,0-3.4L27.3,2
	C28.3,1,29.8,1,30.7,2l11.1,11.1c0.9,0.9,0.9,2.4,0,3.4L25.7,32.6c-0.9,0.9-2.4,0.9-3.4,0l-3.7-3.7c-0.9-0.9-0.9-2.4,0-3.4l8.2-8.2"
	/>
</svg>
