<?xml version="1.0" encoding="utf-8"?>
<!-- Generator: Adobe Illustrator 21.1.0, SVG Export Plug-In . SVG Version: 6.00 Build 0)  -->
<svg version="1.1" id="Layer_1" xmlns="http://www.w3.org/2000/svg" xmlns:xlink="http://www.w3.org/1999/xlink" x="0px" y="0px"
	 viewBox="0 0 310 218.2" style="enable-background:new 0 0 310 218.2;" xml:space="preserve">
<g id="XMLID_822_">
	<path id="XMLID_823_" d="M297.9,18.7C286.7,5.4,266.1,0,226.6,0H83.4C43,0,22,5.8,10.9,19.9C0,33.7,0,54.1,0,82.2v53.7
		c0,54.6,12.9,82.2,83.4,82.2h143.2c34.2,0,53.2-4.8,65.4-16.5c12.6-12,17.9-31.7,17.9-65.7V82.2C310,52.6,309.2,32.1,297.9,18.7z
		 M199,116.5l-65,34c-1.5,0.8-3,1.1-4.6,1.1c-1.8,0-3.6-0.5-5.2-1.4c-3-1.8-4.8-5.1-4.8-8.6V73.9c0-3.5,1.8-6.7,4.8-8.5
		c3-1.8,6.7-1.9,9.8-0.3l65,33.8c3.3,1.7,5.4,5.1,5.4,8.9C204.4,111.3,202.3,114.8,199,116.5z"/>
</g>
</svg>
